<?xml version="1.0" ?><svg id="Icon" viewBox="0 0 64 64" xmlns="http://www.w3.org/2000/svg" xmlns:xlink="http://www.w3.org/1999/xlink"><defs><style>.cls-1{fill:#546f7a;}.cls-2{fill:url(#linear-gradient);}.cls-3{fill:url(#linear-gradient-2);}.cls-4{fill:url(#linear-gradient-3);}</style><linearGradient gradientUnits="userSpaceOnUse" id="linear-gradient" x1="32" x2="32" y1="11.901" y2="56.369"><stop offset="0" stop-color="#78909c"/><stop offset="1" stop-color="#455b64"/></linearGradient><linearGradient gradientTransform="translate(0 64) rotate(-90)" gradientUnits="userSpaceOnUse" id="linear-gradient-2" x1="20.589" x2="43.633" y1="20.589" y2="43.633"><stop offset="0" stop-color="#edeff0"/><stop offset="1" stop-color="#b0bec5"/></linearGradient><linearGradient gradientTransform="translate(0 64) rotate(-90)" gradientUnits="userSpaceOnUse" id="linear-gradient-3" x1="28.698" x2="35.073" y1="28.698" y2="35.073"><stop offset="0" stop-color="#ffcb29"/><stop offset="1" stop-color="#f9a01b"/></linearGradient></defs><path class="cls-1" d="M32,4a1,1,0,0,0-1,1v8a1,1,0,0,0,2,0V5A1,1,0,0,0,32,4Z"/><path class="cls-1" d="M25,4a1,1,0,0,0-1,1v8a1,1,0,0,0,2,0V5A1,1,0,0,0,25,4Z"/><path class="cls-1" d="M18,4a1,1,0,0,0-1,1v8a1,1,0,0,0,2,0V5A1,1,0,0,0,18,4Z"/><path class="cls-1" d="M39,4a1,1,0,0,0-1,1v8a1,1,0,0,0,2,0V5A1,1,0,0,0,39,4Z"/><path class="cls-1" d="M46,4a1,1,0,0,0-1,1v8a1,1,0,0,0,2,0V5A1,1,0,0,0,46,4Z"/><path class="cls-1" d="M13,31H5a1,1,0,0,0,0,2h8a1,1,0,0,0,0-2Z"/><path class="cls-1" d="M13,24H5a1,1,0,0,0,0,2h8a1,1,0,0,0,0-2Z"/><path class="cls-1" d="M13,17H5a1,1,0,0,0,0,2h8a1,1,0,0,0,0-2Z"/><path class="cls-1" d="M13,38H5a1,1,0,0,0,0,2h8a1,1,0,0,0,0-2Z"/><path class="cls-1" d="M13,45H5a1,1,0,0,0,0,2h8a1,1,0,0,0,0-2Z"/><path class="cls-1" d="M32,50a1,1,0,0,0-1,1v8a1,1,0,0,0,2,0V51A1,1,0,0,0,32,50Z"/><path class="cls-1" d="M39,50a1,1,0,0,0-1,1v8a1,1,0,0,0,2,0V51A1,1,0,0,0,39,50Z"/><path class="cls-1" d="M46,50a1,1,0,0,0-1,1v8a1,1,0,0,0,2,0V51A1,1,0,0,0,46,50Z"/><path class="cls-1" d="M25,50a1,1,0,0,0-1,1v8a1,1,0,0,0,2,0V51A1,1,0,0,0,25,50Z"/><path class="cls-1" d="M18,50a1,1,0,0,0-1,1v8a1,1,0,0,0,2,0V51A1,1,0,0,0,18,50Z"/><path class="cls-1" d="M59,31H51a1,1,0,0,0,0,2h8a1,1,0,0,0,0-2Z"/><path class="cls-1" d="M59,38H51a1,1,0,0,0,0,2h8a1,1,0,0,0,0-2Z"/><path class="cls-1" d="M59,45H51a1,1,0,0,0,0,2h8a1,1,0,0,0,0-2Z"/><path class="cls-1" d="M59,24H51a1,1,0,0,0,0,2h8a1,1,0,0,0,0-2Z"/><path class="cls-1" d="M51,19h8a1,1,0,0,0,0-2H51a1,1,0,0,0,0,2Z"/><rect class="cls-2" height="38" rx="2" width="38" x="13" y="13"/><rect class="cls-3" height="22" transform="translate(64 0) rotate(90)" width="22" x="21" y="21"/><rect class="cls-4" height="6" rx="1" transform="translate(64 0) rotate(90)" width="6" x="29" y="29"/></svg>